<svg id="Layer_1" xmlns="http://www.w3.org/2000/svg" width="74.5" height="87.8" viewBox="0 0 74.5 87.8"><style>.st0{fill:#41242A;} .st1{fill:#8B556D;} .st2{fill:#F3F0F7;} .st3{fill:#E2CEC3;} .st4{fill:#9AA7A9;} .st5{fill:#885D8A;} .st6{fill:#61757A;} .st7{fill:#7C4A62;} .st8{fill:#CCB4A8;} .st9{fill:#6C496F;}</style><path class="st0" d="M16.3 35.8l20.9 1 20.9-1 3.4 5.6.6 10.9-11 13.3-13.9-8.4-13.8 8.4-11.1-13.3.4-8.3.2-2.6z"/><path class="st1" d="M14.1 50.8l6.9-9.7 16.2 7.3v6l-13.3 5.5z"/><path class="st2" d="M20 49.1l5 4.6 8.3-2.7-8.3-2.7z"/><path class="st3" d="M12.7 44l-4-1.3L5.3 44 9 60.8l5.9 1.8 2.7 10.9 9.7 10 1.6 4.3h8.3V57.2l-13.8 8.4-11.1-13.3.4-8.3z"/><path class="st4" d="M12.9 41.4l-11.6-2L0 33.6l6.9-4.1 12 2.3 18.3 5-20.9-1z"/><path class="st5" d="M14.1 24.7l-.7 3.9 23.8 5.2v-13z"/><path class="st4" d="M25.7 1.9l-8 7.5L14.1 22l23.1-4V0z"/><path class="st6" d="M49.6 1.9l7.2 7.5L60.4 22l-23.2-4V0z"/><path class="st7" d="M60.4 50.8l-6.9-9.7-16.3 7.3v6l13.3 5.5z"/><path class="st2" d="M54.4 49.1l-4.9 4.6-8.3-2.7 8.3-2.7z"/><path class="st8" d="M61.8 44l4-1.3 3.4 1.3-3.7 16.8-6 1.8-2.6 10.9-9.8 10-1.5 4.3h-8.4V57.2l13.9 8.4 11-13.3-.3-8.3z"/><path class="st6" d="M61.5 41.4l11.7-2 1.3-5.8-6.9-4.1-12 2.3-18.4 5 20.9-1z"/><path class="st9" d="M60.4 24.7l.7 3.9-23.9 5.2v-13z"/></svg>