<svg id="Layer_1" xmlns="http://www.w3.org/2000/svg" width="250" height="250" viewBox="0 0 250 250"><style>.st0{fill:#61757A;} .st1{fill:#2C1503;} .st2{fill:#5D3D2D;} .st3{fill:#F7A797;} .st4{fill:#E1867C;} .st5{fill:#D59F97;} .st6{fill:#FDD5B2;} .st7{fill:#E3B8AE;} .st8{fill:#C5807C;} .st9{fill:#BF5151;} .st10{fill:#A95157;} .st11{fill:#FFFFFF;} .st12{fill:#CD181F;} .st13{fill:#1F0600;} .st14{fill:#CD9590;} .st15{fill:#734D3B;} .st16{fill:#666666;}</style><path class="st0" d="M-34-20.7h300.7v280H-34z"/><path class="st1" d="M52.9 191.9s-46 20.5-35.7 96.7h216s10.5-86.9-37.9-96.8c-48.3-9.8-142.4.1-142.4.1z"/><path class="st2" d="M17.2 288.6h8C22.4 214 61.9 195 61.9 195c-.1-1.4-.3-2.7-.5-4-5.3.5-8.5.8-8.5.8s-46 20.5-35.7 96.8z"/><path class="st3" d="M192.8 46.1c-16-7.6-120.8-5-137.4.6-16.6 5.7-2.7 145.1-2.7 145.1s29 12.3 69.9 12.3c44.4 0 72.9-12.3 72.9-12.3s13.3-138.2-2.7-145.7z"/><path class="st4" d="M195.4 191.8s9.5-97.7 2.9-133.4c-15.6.5-35.3 2.1-42.1 2.1-11.8 0-36.4 11.8-36.4 11.8s8.2 26.5 2.1 44.4c-17.1 4.7-27.3 21.3-16.4 30.9 10.9 9.6 21.9-.2 21.9-.2s-9.4 10.6-21.5 12.8l12.4 6.1s-12.8 1.4-8.4 8.8c4.5 7.4 12.1-2.2 12.1-2.2s-10.6 14.4-3.7 18.9h9.6c.4-.2.7 0 .7 0h66.8z"/><path class="st5" d="M128.1 191.8h.7s-.2-.3-.7 0zm-22.2-44c-4.6 1.7-8.2 4.9-8.7 11-1.3 18-22.7 19.8-25.5-.9-2.8-20.7-8-40.5-23.9-37.4v.1c0 1.1.1 2.2.1 3.2v.1c1.4 32.8 4.4 64.3 4.7 67.6v.3s29 12.3 69.9 12.3h2.1c8.6-3.2 4.5-7.8 4.4-12.2-.3-9.4-6.9-19-6.9-19s-7.7 9.6-12.1 2.2c-4.5-7.4 8.4-8.8 8.4-8.8l-12.4-6.1c12.1-2.2 21.5-12.8 21.5-12.8s-10.8 9.6-21.6.4z"/><path class="st6" d="M59.7 59.8s-3.7-3.2-9.4-4.2c-.1.5-.2 1-.4 1.5-5.9 27.1-.4 98.5 1.9 124.7v.1c0 .5.1.9.1 1.4v.1c0 .4.1.9.1 1.3v.1c0 .4.1.8.1 1.2.1 1.2.2 2.2.3 3 0 .2 0 .5.1.7v2s3.3 1.4 9.2 3.2c-3.1-53.3-2-135.1-2-135.1z"/><path class="st7" d="M52.8 191.8s.1.1 0 0c.8.3 4 1.6 9.1 3.2-1.3-21.6-2-47.9-2.2-71.5-3.1-2.7-7-4-11.9-3 0 .4 0 .9.1 1.3v.8c0 .6 0 1.2.1 1.8v.7c0 1 .1 2 .1 3 0 .4 0 .8.1 1.2 0 .5 0 1 .1 1.5 0 .4 0 .8.1 1.2 0 .5 0 .9.1 1.4 0 .7.1 1.5.1 2.2 0 .4 0 .9.1 1.3 0 .5.1 1 .1 1.4 0 .4 0 .9.1 1.3 0 .5.1.9.1 1.4 0 .4 0 .8.1 1.2 0 .8.1 1.6.1 2.4 0 .3 0 .6.1 1 0 .5.1 1.1.1 1.6 0 .4 0 .7.1 1.1 0 .5.1 1 .1 1.6 0 .3 0 .7.1 1 .1.8.1 1.5.2 2.3 0 .3 0 .6.1.9 0 .5.1 1.1.1 1.6 0 .3 0 .6.1.9 0 .5.1 1.1.1 1.6 0 .3 0 .6.1.9.1.7.1 1.5.2 2.2 0 .2 0 .5.1.7 0 .5.1 1 .1 1.6 0 .3 0 .6.1.8 0 .5.1 1.1.1 1.6v.5c.1.7.1 1.4.2 2.1v.6c0 .5.1 1 .1 1.5 0 .2 0 .4.1.6 0 .5.1 1 .1 1.5v.5c0 .6.1 1.2.1 1.8 0 .2 0 .4.1.6 0 .4.1.8.1 1.3v.6c0 .5.1.9.1 1.3v.4c0 .5.1 1 .1 1.5v.5c0 .2 0 .5.1.7 0 .4.1.8.1 1.2V183.5c0 .4.1.8.1 1.2v.2c0 .4.1.8.1 1.1v.1c0 .3.1.6.1.8.1 1.1.2 2 .3 2.8v.4c.1.6.1 1 .1 1.3v.3s-.2.1-.1.1z"/><path class="st8" d="M195.4 191.8s3.6-36.8 4.8-73.5c-.1 0-23.7.9-23.7 28.4 0 27.6-8.8 31.3-16.9 29.4-16.2-3.7-4.3-28.7-32.1-28.7 0 0-9.4 10.6-21.5 12.8l12.4 6.1s-12.8 1.4-8.4 8.8c4.5 7.4 12.1-2.2 12.1-2.2s-10.6 14.4-3.7 18.9l6 3.1-.3 9.3c44.5-.1 71.3-12.4 71.3-12.4z"/><path class="st9" d="M198.3 58.4c-15.6.5-35.3 2.1-42.1 2.1h-1.5c-.3 0-.5 0-.8.1-.2 0-.3 0-.5.1-.2 0-.5.1-.8.1-.2 0-.3.1-.5.1-.3 0-.5.1-.8.1-.2 0-.4.1-.6.1-.3 0-.5.1-.8.2-.2 0-.4.1-.6.1-.3.1-.5.1-.8.2-.2 0-.4.1-.6.1-.3.1-.5.1-.8.2-.2 0-.4.1-.6.1-.3.1-.6.2-.9.2-.2.1-.4.1-.6.2l-.9.3c-.2.1-.4.1-.5.2-.3.1-.6.2-1 .3-.2.1-.3.1-.5.2-.3.1-.7.2-1 .3-.1 0-.3.1-.4.1-.4.1-.8.3-1.1.4-.1 0-.2.1-.3.1-.5.2-1 .3-1.4.5-1.5.5-3 1.1-4.4 1.6-.1 0-.1.1-.2.1-.4.2-.8.3-1.2.5-.1 0-.2.1-.3.1-.4.1-.7.3-1 .4-.1 0-.2.1-.3.1-.3.1-.6.3-1 .4-.1 0-.2.1-.3.1-.3.1-.6.2-.9.4-.1.1-.2.1-.4.1-.3.1-.6.2-.8.3-.1.1-.2.1-.4.1-.3.1-.5.2-.8.3-.1 0-.2.1-.3.1-.2.1-.5.2-.7.3-.1 0-.2.1-.3.1l-.6.3c-.1.1-.2.1-.4.2s-.3.2-.5.2c-.1 0-.2.1-.3.2-.1.1-.3.1-.4.2-.1.1-.3.1-.4.2h-.1c-.9.4-1.5.7-1.9.9.8 3.2 1.5 5.5 1.5 5.5s54.5 12.1 72.7 2.1c1.6 16.6-4.6 84.8-7.3 115.2 5.5-1.8 8.4-3.1 8.4-3.1s9.6-97.6 3-133.3z"/><path class="st10" d="M193.2 119.9c-1.7 25.9-4.5 57.1-6.2 75.1 4.7-1.5 7.5-2.7 8.2-3h.1s3.6-36.8 4.8-73.5c.1-.2-3-.1-6.9 1.4z"/><path class="st1" d="M190.3 93.5s-43.5-19.5-66.6 5.1C100.5 74 57 93.5 57 93.5c-4.1 33.2 52.9 47.8 66.6 13.4 13.8 34.5 70.7 19.8 66.7-13.4zM47.5 75.1s130 13.6 152.9-1.4c4.4-2.1 4.8-8.5-.8-9.9 0-14.3 1.8-24.2-7.7-27.9 8.2-5.4 19.1 2.5 24.4 10.9 0 0-2.2 1.5-1.8 5.5.5 4.4 7.1 6.7 11.8 4.7 5.4-2.4 5-11.5-.1-11.9-4.9-9.4-7.2-33.1-93.1-33.1-28.9 0-94.4.4-87.7 52.4-6.2 6.2 2.1 10.7 2.1 10.7z"/><path class="st6" d="M122 116.7c-17.1 4.7-27.3 21.3-16.4 30.9 4.2 3.7 8.4 4.5 11.9 4.1-3.3-.4-11.8-2.7-11-14.1 1.1-14.3 15.5-20.9 15.5-20.9z"/><path class="st11" d="M63.6 99.7s42.9-17.9 52.4 2.5c-7.3 21.4-46.6 19.2-52.4-2.5z"/><path class="st1" d="M120.2 165.7s-18.7-6.8-29.2-2.6c-1.1 6.2 1 8.3 1 8.3s12-4.1 24.9-3.7c2-.5 3.3-2 3.3-2z"/><path class="st12" d="M91 163.1c-.6.1-2.5 2-2 2.5s0 .7 0 1.6c0 .8 0 .8.4 1.2.4.4.4.8.4 1.6s.4 1.2.6 1.4c.2.2 1.2.6 1.7 0 .6-.6 1.1-.8.6-1.7-.6-.9-.6-2.5-.6-2.8 0-.4.2-.9 0-1.2-.2-.2-.2-.2-.2-.7-.2-.4.3-2.1-.9-1.9z"/><path class="st11" d="M131 103.1s6.3-10.4 22.6-10.4 29.7 8.2 29.7 8.2-1.5 15.8-26.9 17.8c-22 1.6-25.4-15.6-25.4-15.6z"/><path class="st1" d="M108.7 109.9c-2 0-3.5-1.6-3.5-3.5 0-2 1.6-3.5 3.5-3.5 2 0 3.5 1.6 3.5 3.5.1 1.9-1.5 3.5-3.5 3.5zM171.2 109.5c-2 0-3.5-1.6-3.5-3.5 0-2 1.6-3.5 3.5-3.5 2 0 3.5 1.6 3.5 3.5.1 1.9-1.5 3.5-3.5 3.5z"/><path class="st4" d="M90.6 130.2c-.5 0-1-.4-1-1 0-.5.4-1 1-1 .5 0 1 .4 1 1 0 .5-.4 1-1 1zM84 131.5c-.5 0-1-.4-1-1 0-.5.4-1 1-1 .5 0 1 .4 1 1 0 .5-.5 1-1 1zM75.8 134c-.5 0-1-.4-1-1s.4-1 1-1 1 .4 1 1-.5 1-1 1zM81.6 139.9c-.5 0-1-.4-1-1 0-.5.4-1 1-1s1 .4 1 1c0 .5-.4 1-1 1zM72.3 140.4c-.6 0-1-.4-1-1 0-.5.4-1 1-1 .5 0 1 .4 1 1 0 .5-.4 1-1 1zM79.4 149.5c-.6 0-1-.4-1-1s.4-1 1-1c.5 0 1 .4 1 1 0 .5-.5 1-1 1zM88.2 140.7c-.5 0-1-.4-1-1 0-.5.4-1 1-1 .5 0 1 .4 1 1 0 .5-.5 1-1 1zM86.9 150.6c-.5 0-1-.4-1-1 0-.5.4-1 1-1 .5 0 1 .4 1 1s-.4 1-1 1zM95 146.6c-.5 0-1-.4-1-1 0-.5.4-1 1-1 .5 0 1 .4 1 1s-.4 1-1 1zM98.2 137.2c-.5 0-1-.4-1-1s.4-1 1-1c.5 0 1 .4 1 1s-.5 1-1 1zM91.8 135.3c-.5 0-1-.4-1-1s.4-1 1-1c.5 0 1 .4 1 1s-.4 1-1 1z"/><g><path class="st9" d="M158.3 143.6c.5 0 1 .4 1 1 0 .5-.4 1-1 1s-1-.4-1-1 .5-1 1-1zM164.4 143c.5 0 1 .4 1 1 0 .5-.4 1-1 1-.5 0-1-.4-1-1 0-.5.4-1 1-1zM170.1 141.1c.5 0 1 .4 1 1s-.4 1-1 1-1-.4-1-1 .4-1 1-1zM163.9 135.8c.5 0 1 .4 1 1 0 .5-.4 1-1 1s-1-.4-1-1c0-.5.4-1 1-1zM168.5 135c.5 0 1 .4 1 1 0 .5-.4 1-1 1s-1-.4-1-1c0-.5.5-1 1-1zM164.8 130.3c.6 0 1 .4 1 1s-.4 1-1 1c-.5 0-1-.4-1-1s.5-1 1-1zM159.1 133.8c.5 0 1 .4 1 1 0 .5-.4 1-1 1-.5 0-1-.4-1-1s.4-1 1-1zM158.2 128.9c.5 0 1 .4 1 1 0 .5-.4 1-1 1s-1-.4-1-1 .4-1 1-1zM152.5 134.5c.5 0 1 .4 1 1 0 .5-.4 1-1 1-.5 0-1-.4-1-1 0-.5.5-1 1-1zM150.3 140c.5 0 1 .4 1 1 0 .5-.4 1-1 1-.5 0-1-.4-1-1 .1-.6.5-1 1-1zM157.4 137.6c.5 0 1 .4 1 1 0 .5-.4 1-1 1-.5 0-1-.4-1-1 .1-.5.5-1 1-1z"/></g><path class="st9" d="M126.7 130.7c4.4-1.6 12.3 8.8 4.3 12.3 12.7 0 6.3-16.7-4.3-12.3z"/><path class="st2" d="M169 65.4c-64.8 7.7-124-5.6-124-5.6.1 1.5.2 3 .4 4.6 12.7 4.6 99.1 10.3 123.6 1z"/><path class="st13" d="M199.6 63.8c0-14.3 1.8-24.2-7.7-27.9 2.7 1.4 3 22.1 2 30.8 5.2 2.5 2.9 7.4-5.5 11.1 5.2-1 9.3-2.4 12-4.1 4.4-2.1 4.7-8.5-.8-9.9z"/><g><path class="st6" d="M112 172.8c0-4.5 10.1-5.5 10.1-5.5s-.9-2.9-9.3-6.3c9.5-2 14.8-13.5 14.8-13.5s-9.4 10.6-21.5 12.8l12.4 6.1s-12.8 1.4-8.4 8.8c4.5 7.4 12.1-2.2 12.1-2.2-3.2 3.2-10.2 4.2-10.2-.2z"/><path class="st6" d="M120.2 188.4c-.9-4.7-.1-10.8 2-15.5 0 0-8.4 11.4-5.4 17 .2.3 2.8 4.7 7.7 4.9-2.7-1-3.9-4.4-4.3-6.4z"/></g><path class="st9" d="M124.5 194.8c3.8-.8 6-4.5 4.4-7.4 4.9 1.3 1.2 8.7-4.4 7.4z"/><path class="st15" d="M107.5 168.1c.3 0 .6-.1.9-.1.3-1.7.1-3.8-.8-5.6-.5-.1-.9-.1-1.4-.2 1.2 1.5 2 3.7 1.3 5.9z"/><path class="st11" d="M89.7 161.4c-3.5-1.5-10.2-13.1-3.7-19.6 6.5-6.5 6.1-20-1.9-25.3 0 0 8.6 2.9 8.6 11.9 0 12.4-4.9 12.4-6.4 16.8-2.9 8.3 3.4 16.2 3.4 16.2z"/><g><path class="st9" d="M200.7 90.4l-.9 27.8s18.2 3.2 22.1-15c3.8-18.1-12.3-21.7-21.2-12.8z"/><path class="st4" d="M200.7 97.3s8.4-10.8 16.5-4.4c-7.6.3-10.7 1.7-13.3 6.1 5.9-1.3 11.5.7 9 9.2-2.6 8.6-11.5 2.5-11.5 2.5s8.7 2.1 8.7-4.9c0-6.7-9.4-3.3-9.4-3.3v-5.2z"/></g><path class="st6" d="M49.1 90.4c-9.3-9.3-29.9 4.7-20.4 22.5 6.5 12.2 21.6 6.5 21.6 6.5l-1.2-29z"/><path class="st3" d="M30.7 100.1s9.2-10.4 16.5-4.7c.2 5.2.4 8.8.4 8.8s-9.8-1.7-11 2.4c-1.2 4.1 3.9 9.8 9.9 7.6-4.4 3.2-13.5 1.4-13.5-5.8 0-7.2 12-7.2 12-7.2l.3-3.4c0-.1-9.1-.7-14.6 2.3z"/><path class="st2" d="M46.8 288.6s-3.7-32.1 1.6-45.2v45.2h-1.6zM204.5 288.6s3.7-32.1-1.6-45.2v45.2h1.6z"/><path class="st16" d="M63.6 99.7c.2.9.5 1.7.9 2.5 5.6-1.9 34.7-11 51.3.9.1-.3.2-.5.3-.8-9.6-20.5-52.5-2.6-52.5-2.6zM131 103.1s.2 1 .8 2.4c0 0 6.5-6.8 18.9-8.6 8.7-1.3 21.6.1 31.9 6.5.5-1.5.6-2.5.6-2.5s-13.4-8.2-29.7-8.2c-16.2 0-22.5 10.4-22.5 10.4z"/></svg>